<svg width="78" height="26" viewBox="0 0 78 26" fill="none" xmlns="http://www.w3.org/2000/svg">
<path d="M13.358 11.5227C13.358 11.054 13.2031 10.6989 12.8935 10.4574C12.5838 10.2131 12.1648 10.0909 11.6364 10.0909C11.25 10.0909 10.902 10.1534 10.5923 10.2784C10.2827 10.4034 10.0298 10.5753 9.83381 10.794C9.63778 11.0128 9.51705 11.2614 9.47159 11.5398C9.43466 11.7727 9.45881 11.973 9.54403 12.1406C9.62926 12.3054 9.75 12.4432 9.90625 12.554C10.0653 12.6619 10.2358 12.7514 10.4176 12.8224C10.5994 12.8906 10.767 12.946 10.9205 12.9886L11.7727 13.2273C11.9858 13.2869 12.223 13.3693 12.4844 13.4744C12.7457 13.5795 12.9901 13.723 13.2173 13.9048C13.4446 14.0838 13.6179 14.3139 13.7372 14.5952C13.8594 14.8764 13.8864 15.2216 13.8182 15.6307C13.7386 16.1023 13.544 16.5284 13.2344 16.9091C12.9276 17.2898 12.5213 17.5923 12.0156 17.8168C11.5128 18.0412 10.9261 18.1534 10.2557 18.1534C9.63068 18.1534 9.10511 18.0526 8.67898 17.8509C8.25568 17.6491 7.94318 17.3679 7.74148 17.0071C7.54261 16.6463 7.46591 16.2273 7.51136 15.75H8.60227C8.57386 16.0795 8.6392 16.3523 8.7983 16.5682C8.95739 16.7812 9.17898 16.9403 9.46307 17.0455C9.74716 17.1477 10.0625 17.1989 10.4091 17.1989C10.8125 17.1989 11.1847 17.1335 11.5256 17.0028C11.8693 16.8693 12.1534 16.6847 12.3778 16.4489C12.6051 16.2102 12.7443 15.9318 12.7955 15.6136C12.8466 15.3239 12.8068 15.0881 12.6761 14.9062C12.5455 14.7244 12.3565 14.5767 12.1094 14.4631C11.8622 14.3494 11.5909 14.25 11.2955 14.1648L10.2727 13.858C9.625 13.6619 9.1321 13.3821 8.79403 13.0185C8.45881 12.6548 8.33807 12.179 8.43182 11.5909C8.51705 11.1023 8.72301 10.6761 9.04972 10.3125C9.37642 9.94602 9.78125 9.66193 10.2642 9.46023C10.7472 9.25568 11.267 9.15341 11.8239 9.15341C12.3864 9.15341 12.8679 9.25568 13.2685 9.46023C13.669 9.66193 13.9673 9.94176 14.1634 10.2997C14.3594 10.6548 14.4318 11.0625 14.3807 11.5227H13.358ZM15.9819 10.2102L16.1353 9.27273H22.6808L22.5273 10.2102H19.783L18.4876 18H17.4308L18.7262 10.2102H15.9819ZM30.5792 13.7045C30.4258 14.6136 30.1317 15.3991 29.6971 16.0611C29.2624 16.7202 28.7312 17.2287 28.1033 17.5866C27.4755 17.9418 26.7951 18.1193 26.0621 18.1193C25.3065 18.1193 24.663 17.9347 24.1317 17.5653C23.6033 17.1932 23.2255 16.6676 22.9982 15.9886C22.7738 15.3068 22.7383 14.5 22.8917 13.5682C23.0451 12.6591 23.3391 11.875 23.7738 11.2159C24.2085 10.554 24.7411 10.0455 25.3718 9.69034C26.0025 9.33239 26.6871 9.15341 27.4258 9.15341C28.1758 9.15341 28.8136 9.33949 29.3391 9.71165C29.8675 10.081 30.244 10.6065 30.4684 11.2884C30.6957 11.9673 30.7326 12.7727 30.5792 13.7045ZM29.5735 13.5682C29.6985 12.8239 29.68 12.1974 29.5181 11.6889C29.3562 11.1804 29.0877 10.7955 28.7127 10.5341C28.3377 10.2727 27.8917 10.142 27.3746 10.142C26.8349 10.142 26.3235 10.2798 25.8406 10.5554C25.3576 10.8281 24.9442 11.2301 24.6005 11.7614C24.2567 12.2898 24.0224 12.9375 23.8974 13.7045C23.7724 14.4489 23.7908 15.0753 23.9528 15.5838C24.1147 16.0923 24.3832 16.4773 24.7582 16.7386C25.1332 17 25.5792 17.1307 26.0962 17.1307C26.636 17.1307 27.1474 16.9943 27.6303 16.7216C28.1133 16.446 28.5266 16.044 28.8704 15.5156C29.2141 14.9844 29.4485 14.3352 29.5735 13.5682ZM31.6403 18L33.0891 9.27273H36.038C36.7198 9.27273 37.2596 9.38778 37.6573 9.6179C38.0579 9.84801 38.3292 10.1648 38.4712 10.5682C38.6161 10.9716 38.646 11.4318 38.5607 11.9489C38.4755 12.4602 38.2937 12.9148 38.0153 13.3125C37.7397 13.7102 37.3647 14.0227 36.8903 14.25C36.4187 14.4773 35.8448 14.5909 35.1687 14.5909H32.7823L32.9528 13.6364H35.305C35.771 13.6364 36.1573 13.5682 36.4641 13.4318C36.771 13.2955 37.0096 13.1009 37.18 12.848C37.3505 12.5952 37.4641 12.2955 37.521 11.9489C37.5778 11.5966 37.5621 11.2912 37.4741 11.0327C37.3888 10.7713 37.2141 10.5696 36.9499 10.4276C36.6886 10.2827 36.3221 10.2102 35.8505 10.2102H33.9925L32.6971 18H31.6403ZM36.396 14.0795L37.896 18H36.6687L35.2028 14.0795H36.396ZM39.3161 18L40.7649 9.27273H46.032L45.8786 10.2102H41.6683L41.174 13.1591H45.1115L44.9581 14.0966H41.0206L40.5263 17.0625H44.8047L44.6513 18H39.3161ZM52.3345 11.5227C52.3345 11.054 52.1797 10.6989 51.87 10.4574C51.5604 10.2131 51.1413 10.0909 50.6129 10.0909C50.2266 10.0909 49.8786 10.1534 49.5689 10.2784C49.2592 10.4034 49.0064 10.5753 48.8104 10.794C48.6143 11.0128 48.4936 11.2614 48.4482 11.5398C48.4112 11.7727 48.4354 11.973 48.5206 12.1406C48.6058 12.3054 48.7266 12.4432 48.8828 12.554C49.0419 12.6619 49.2124 12.7514 49.3942 12.8224C49.576 12.8906 49.7436 12.946 49.897 12.9886L50.7493 13.2273C50.9624 13.2869 51.1996 13.3693 51.4609 13.4744C51.7223 13.5795 51.9666 13.723 52.1939 13.9048C52.4212 14.0838 52.5945 14.3139 52.7138 14.5952C52.8359 14.8764 52.8629 15.2216 52.7947 15.6307C52.7152 16.1023 52.5206 16.5284 52.2109 16.9091C51.9041 17.2898 51.4979 17.5923 50.9922 17.8168C50.4893 18.0412 49.9027 18.1534 49.2322 18.1534C48.6072 18.1534 48.0817 18.0526 47.6555 17.8509C47.2322 17.6491 46.9197 17.3679 46.718 17.0071C46.5192 16.6463 46.4425 16.2273 46.4879 15.75H47.5788C47.5504 16.0795 47.6158 16.3523 47.7749 16.5682C47.9339 16.7812 48.1555 16.9403 48.4396 17.0455C48.7237 17.1477 49.0391 17.1989 49.3857 17.1989C49.7891 17.1989 50.1612 17.1335 50.5021 17.0028C50.8459 16.8693 51.13 16.6847 51.3544 16.4489C51.5817 16.2102 51.7209 15.9318 51.772 15.6136C51.8232 15.3239 51.7834 15.0881 51.6527 14.9062C51.522 14.7244 51.3331 14.5767 51.0859 14.4631C50.8388 14.3494 50.5675 14.25 50.272 14.1648L49.2493 13.858C48.6016 13.6619 48.1087 13.3821 47.7706 13.0185C47.4354 12.6548 47.3146 12.179 47.4084 11.5909C47.4936 11.1023 47.6996 10.6761 48.0263 10.3125C48.353 9.94602 48.7578 9.66193 49.2408 9.46023C49.7237 9.25568 50.2436 9.15341 50.8004 9.15341C51.3629 9.15341 51.8445 9.25568 52.245 9.46023C52.6456 9.66193 52.9439 9.94176 53.1399 10.2997C53.3359 10.6548 53.4084 11.0625 53.3572 11.5227H52.3345Z" fill="#EA903C"/>
<path d="M9.34659 6.27273L6.35227 15H3.17045L0.181818 6.27273H3.10795L4.71591 12.2841H4.80682L6.42045 6.27273H9.34659Z" fill="#EA903C"/>
<circle cx="66" cy="14" r="11.5" fill="white" stroke="#EA903C"/>
<path d="M58.5668 7.33767C58.3076 7.38292 58.0754 7.53866 57.9215 7.77062C57.7675 8.00259 57.7043 8.29178 57.7458 8.57459C57.7872 8.85739 57.93 9.11063 58.1426 9.27861C58.3552 9.44658 58.6203 9.51553 58.8795 9.47028H61.8117L61.9876 10.0034L62.7891 12.6692L63.5906 15.335C63.6688 15.6122 64.0011 15.8681 64.2552 15.8681H71.0969C71.3706 15.8681 71.6834 15.6122 71.7616 15.335L73.3449 10.0034C73.4231 9.7262 73.3058 9.47028 73.0322 9.47028H64.3529L63.6101 7.9348C63.531 7.75856 63.4088 7.60956 63.2571 7.5042C63.1053 7.39884 62.9299 7.34122 62.75 7.33767L58.8405 7.33767C58.7819 7.3319 58.723 7.3319 58.6645 7.33767C58.6255 7.33511 58.5863 7.33511 58.5472 7.33767L58.5668 7.33767ZM64.7439 18.0007C64.1965 18.0007 63.7665 18.4699 63.7665 19.067C63.7665 19.6642 64.1965 20.1333 64.7439 20.1333C65.2912 20.1333 65.7213 19.6642 65.7213 19.067C65.7213 18.4699 65.2912 18.0007 64.7439 18.0007ZM70.6082 18.0007C70.0609 18.0007 69.6308 18.4699 69.6308 19.067C69.6308 19.6642 70.0609 20.1333 70.6082 20.1333C71.1556 20.1333 71.5856 19.6642 71.5856 19.067C71.5856 18.4699 71.1556 18.0007 70.6082 18.0007Z" fill="#EA903C"/>
</svg>
